<?xml version="1.0" encoding="utf-8"?>
<!-- Generator: Adobe Illustrator 23.0.1, SVG Export Plug-In . SVG Version: 6.00 Build 0)  -->
<svg version="1.1" id="Layer_1" xmlns="http://www.w3.org/2000/svg" xmlns:xlink="http://www.w3.org/1999/xlink" x="0px" y="0px"
	 viewBox="0 0 350 100" style="enable-background:new 0 0 350 100;" xml:space="preserve">
<style type="text/css">
	.st0{fill:url(#SVGID_1_);}
	.st1{fill:url(#SVGID_2_);}
	.st2{fill:url(#SVGID_3_);}
	.st3{fill:url(#SVGID_4_);}
	.st4{fill:url(#SVGID_5_);}
	.st5{fill:url(#SVGID_6_);}
	.st6{fill:url(#SVGID_7_);}
	.st7{fill:url(#SVGID_8_);}
	.st8{fill:url(#SVGID_9_);}
	.st9{fill:url(#SVGID_10_);}
	.st10{fill:url(#SVGID_11_);}
	.st11{fill:url(#SVGID_12_);}
	.st12{fill:url(#SVGID_13_);}
	.st13{fill:url(#SVGID_14_);}
	.st14{fill:url(#SVGID_15_);}
	.st15{fill:url(#SVGID_16_);}
</style>
<title>manyapratha-logo</title>
<linearGradient id="SVGID_1_" gradientUnits="userSpaceOnUse" x1="67" y1="-315.9296" x2="95.1168" y2="-315.9296" gradientTransform="matrix(1 0 0 -1 -16.07 -277.81)">
	<stop  offset="0" style="stop-color:#5C0000"/>
	<stop  offset="1" style="stop-color:#BE1E2D"/>
</linearGradient>
<path class="st0" d="M79.1,53.8C78.5,54,78,54.1,77.3,54c-0.6,0-1.1-0.1-1.8-0.2c-0.7-0.1-1.4-0.4-2.1-0.8c-0.7-0.5-1.5-1.1-2.1-1.9
	c-0.7-1-1.3-2.1-1.7-3.3l-1.1-3.1H56.4l-3.6,9.1h-2l12.3-31.6h1.4l9.7,25.6c0.4,0.9,0.7,1.7,1,2.3c0.3,0.6,0.7,1.1,1,1.5
	c0.4,0.4,0.7,0.7,1.2,0.9s1,0.3,1.6,0.4V53.8z M57.1,42.8h10.8l-5.2-13.9L57.1,42.8z"/>
<linearGradient id="SVGID_2_" gradientUnits="userSpaceOnUse" x1="94.8825" y1="-316.0505" x2="120.8061" y2="-316.0505" gradientTransform="matrix(1 0 0 -1 -16.07 -277.81)">
	<stop  offset="0" style="stop-color:#5C0000"/>
	<stop  offset="1" style="stop-color:#BE1E2D"/>
</linearGradient>
<path class="st1" d="M83.2,28c0.1-1.2-0.3-2.4-0.8-3.5c-0.6-0.9-1.6-1.3-3.1-1.3h-0.5v-1h2.8c1.2-0.1,2.4,0.2,3.6,0.8
	c0.9,0.5,1.8,1.2,2.4,2.1L103,45.9V22.2h1.8v32.1H104l-19-25.6v25.1h-1.8L83.2,28L83.2,28z"/>
<linearGradient id="SVGID_3_" gradientUnits="userSpaceOnUse" x1="124.9955" y1="-315.91" x2="153.0655" y2="-315.91" gradientTransform="matrix(1 0 0 -1 -16.07 -277.81)">
	<stop  offset="0" style="stop-color:#5C0000"/>
	<stop  offset="1" style="stop-color:#BE1E2D"/>
</linearGradient>
<path class="st2" d="M125.8,38.3l9.2-16h2l-10.3,18.2v13.4h-3.9V40.8l-7.5-12.3c-0.5-0.7-0.8-1.4-1.3-2c-0.4-0.6-0.8-1.1-1.4-1.6
	c-0.5-0.5-1-0.8-1.7-1.1c-0.7-0.3-1.3-0.5-2.1-0.5v-1h3.9c0.7,0,1.5,0.1,2.2,0.4c0.7,0.3,1.2,0.7,1.8,1.2c0.6,0.5,1,1.1,1.4,1.7
	c0.4,0.6,0.8,1.3,1.2,1.9L125.8,38.3z"/>
<linearGradient id="SVGID_4_" gradientUnits="userSpaceOnUse" x1="151.341" y1="-315.9296" x2="179.4859" y2="-315.9296" gradientTransform="matrix(1 0 0 -1 -16.07 -277.81)">
	<stop  offset="0" style="stop-color:#5C0000"/>
	<stop  offset="1" style="stop-color:#BE1E2D"/>
</linearGradient>
<path class="st3" d="M163.4,53.8c-0.6,0.2-1.1,0.3-1.8,0.2c-0.6,0-1.1-0.1-1.8-0.2c-0.7-0.1-1.4-0.4-2.1-0.8c-0.7-0.5-1.4-1.1-2-1.9
	c-0.7-1-1.3-2.1-1.7-3.3l-1.1-3.1h-12.3l-3.6,9.1h-2l12.3-31.6h1.3l9.7,25.6c0.4,0.9,0.7,1.7,1,2.3c0.3,0.6,0.7,1.1,1,1.5
	c0.4,0.4,0.7,0.7,1.2,0.9c0.5,0.2,1,0.3,1.6,0.4L163.4,53.8z M141.4,42.8h10.8l-5.2-13.9L141.4,42.8z"/>
<linearGradient id="SVGID_5_" gradientUnits="userSpaceOnUse" x1="180.3739" y1="-315.81" x2="202.7939" y2="-315.81" gradientTransform="matrix(1 0 0 -1 -16.07 -277.81)">
	<stop  offset="0" style="stop-color:#5C0000"/>
	<stop  offset="1" style="stop-color:#BE1E2D"/>
</linearGradient>
<path class="st4" d="M172.2,53.8h-3.9V28c0-1.2-0.2-2.4-0.6-3.5c-0.4-0.9-1.2-1.3-2.5-1.3h-0.8v-1h11.4c1.1,0,2.2,0.1,3.3,0.3
	c1.2,0.2,2.5,0.6,3.7,1.3c1.2,0.7,2.2,1.7,2.9,2.9c0.8,1.5,1.3,3.3,1.2,5.1c0,1.2-0.2,2.4-0.6,3.5c-0.7,1.8-1.9,3.2-3.4,4.1
	c-0.7,0.4-1.4,0.7-2.2,0.9c-1.1,0.3-2.3,0.5-3.6,0.6h-4.8v12.9L172.2,53.8z M175.5,39.2c0.7,0,1.4-0.1,2.1-0.4
	c0.8-0.3,1.6-0.7,2.2-1.3c0.7-0.7,1.3-1.5,1.8-2.4c0.9-2.3,0.9-4.9,0-7.2c-0.5-0.9-1-1.7-1.8-2.4c-0.7-0.6-1.4-1-2.2-1.3
	c-0.7-0.2-1.4-0.4-2.1-0.4c-0.6,0-1.1,0.1-1.8,0.1c-0.6,0.1-1,0.2-1.6,0.3v14.4c0.5,0.1,1,0.3,1.6,0.3
	C174.4,39.2,174.9,39.2,175.5,39.2L175.5,39.2z"/>
<linearGradient id="SVGID_6_" gradientUnits="userSpaceOnUse" x1="207.441" y1="-317.11" x2="233.3647" y2="-317.11" gradientTransform="matrix(1 0 0 -1 -16.07 -277.81)">
	<stop  offset="0" style="stop-color:#5C0000"/>
	<stop  offset="1" style="stop-color:#BE1E2D"/>
</linearGradient>
<path class="st5" d="M202.4,40.2h-3.1v14.6h-3.9V29c0-1.2-0.2-2.4-0.6-3.5c-0.4-0.9-1.2-1.3-2.5-1.3h-0.9v-1h11.4
	c1.1,0,2.2,0.1,3.3,0.3c1.2,0.2,2.4,0.6,3.6,1.2c1.1,0.6,2.2,1.5,2.9,2.6c0.8,1.3,1.2,3,1.2,4.6c0,1.2-0.2,2.4-0.7,3.5
	c-0.4,0.9-0.9,1.7-1.7,2.4c-0.7,0.6-1.4,1.1-2.2,1.5c-0.7,0.3-1.6,0.6-2.4,0.8l4.6,8.4c0.5,0.9,0.9,1.7,1.5,2.5
	c0.5,0.6,0.9,1.2,1.4,1.7c0.4,0.4,0.9,0.7,1.4,0.9s1,0.3,1.5,0.4v1c-0.4,0.2-0.7,0.3-1,0.3c-0.6,0.1-1,0.1-1.6,0.1
	c-0.7,0-1.4-0.1-2.2-0.3c-0.7-0.3-1.3-0.6-1.9-1.2c-0.7-0.6-1.3-1.4-1.9-2.2c-0.7-1.1-1.4-2.2-2-3.3L202.4,40.2z M202.6,38.6
	c0.7,0,1.4-0.1,2.1-0.4c0.7-0.3,1.5-0.7,2.2-1.2c0.7-0.5,1.3-1.2,1.8-2.1s0.7-2,0.7-3.1s-0.2-2.2-0.7-3.2c-0.5-0.8-1-1.6-1.8-2.2
	c-0.7-0.5-1.4-0.9-2.2-1.2c-0.7-0.2-1.4-0.4-2.1-0.4c-0.6,0-1.1,0.1-1.8,0.1c-0.6,0.1-1,0.2-1.6,0.3v12.9c0.5,0.1,1,0.3,1.6,0.3
	C201.5,38.5,202,38.6,202.6,38.6L202.6,38.6z"/>
<linearGradient id="SVGID_7_" gradientUnits="userSpaceOnUse" x1="237.0644" y1="-316.9296" x2="265.1812" y2="-316.9296" gradientTransform="matrix(1 0 0 -1 -16.07 -277.81)">
	<stop  offset="0" style="stop-color:#5C0000"/>
	<stop  offset="1" style="stop-color:#BE1E2D"/>
</linearGradient>
<path class="st6" d="M249.1,54.8c-0.6,0.2-1.1,0.3-1.8,0.2c-0.6,0-1.1-0.1-1.8-0.2c-0.7-0.1-1.4-0.4-2-0.8c-0.7-0.5-1.5-1.1-2.1-1.9
	c-0.7-1-1.3-2.1-1.7-3.3l-1.1-3.1h-12.3l-3.6,9.1h-2l12.3-31.6h1.3l9.7,25.7c0.4,0.9,0.7,1.7,1,2.3c0.3,0.6,0.7,1.1,1,1.5
	s0.7,0.7,1.2,0.9s1,0.3,1.6,0.4L249.1,54.8z M227.2,43.8H238l-5.2-13.9L227.2,43.8z"/>
<linearGradient id="SVGID_8_" gradientUnits="userSpaceOnUse" x1="262.2383" y1="-316.81" x2="286.4" y2="-316.81" gradientTransform="matrix(1 0 0 -1 -16.07 -277.81)">
	<stop  offset="0" style="stop-color:#5C0000"/>
	<stop  offset="1" style="stop-color:#BE1E2D"/>
</linearGradient>
<path class="st7" d="M270.3,23.2v1.9h-9.8v29.7h-3.9V25.2h-3.9c-1.5-0.1-2.9,0.4-4,1.4c-1,1.1-1.5,2.6-1.4,4.2h-0.8v-3.7
	c0-0.5,0.1-1,0.2-1.4s0.3-0.9,0.6-1.2c0.3-0.4,0.7-0.7,1.1-0.9c0.6-0.2,1.2-0.4,1.9-0.3L270.3,23.2z"/>
<linearGradient id="SVGID_9_" gradientUnits="userSpaceOnUse" x1="290.3785" y1="-316.86" x2="319.3763" y2="-316.86" gradientTransform="matrix(1 0 0 -1 -16.07 -277.81)">
	<stop  offset="0" style="stop-color:#5C0000"/>
	<stop  offset="1" style="stop-color:#BE1E2D"/>
</linearGradient>
<path class="st8" d="M299.4,49.1c0,1.2,0.2,2.4,0.6,3.5c0.4,0.9,1.2,1.3,2.5,1.3h0.8v1h-3.9c-0.7,0-1.2-0.1-1.9-0.2
	c-0.5-0.1-0.9-0.4-1.2-0.9c-0.4-0.5-0.6-1.1-0.7-1.8c-0.1-1-0.2-1.9-0.2-2.9v-9.6h-13.2v15.3h-3.9V29c0-1.2-0.2-2.4-0.6-3.5
	c-0.4-0.9-1.2-1.3-2.5-1.3h-0.8v-1h3.9c0.7,0,1.2,0.1,1.9,0.2c0.5,0.1,0.9,0.4,1.2,0.9c0.4,0.5,0.6,1.1,0.7,1.8
	c0.1,1,0.2,1.9,0.2,2.9v8.6h13.2V23.2h3.9V49.1z"/>
<linearGradient id="SVGID_10_" gradientUnits="userSpaceOnUse" x1="323.472" y1="-316.9296" x2="351.5981" y2="-316.9296" gradientTransform="matrix(1 0 0 -1 -16.07 -277.81)">
	<stop  offset="0" style="stop-color:#5C0000"/>
	<stop  offset="1" style="stop-color:#BE1E2D"/>
</linearGradient>
<path class="st9" d="M335.5,54.8c-0.6,0.2-1.1,0.3-1.8,0.2c-0.6,0-1.1-0.1-1.8-0.2c-0.7-0.1-1.4-0.4-2.1-0.8c-0.7-0.5-1.4-1.1-2-1.9
	c-0.7-1-1.3-2.1-1.7-3.3l-1.1-3.1h-12.3l-3.6,9.1h-2l12.3-31.6h1.3l9.7,25.6c0.4,0.9,0.7,1.7,0.9,2.3s0.7,1.1,1,1.5
	c0.4,0.4,0.7,0.7,1.2,0.9c0.5,0.2,1,0.3,1.6,0.4v0.9C335.3,54.8,335.5,54.8,335.5,54.8z M313.6,43.8h10.8l-5.2-13.9L313.6,43.8z"/>
<radialGradient id="SVGID_11_" cx="36.76" cy="-305.1043" r="38.01" gradientTransform="matrix(0.9372 0 0 -1 -4.0758 -277.81)" gradientUnits="userSpaceOnUse">
	<stop  offset="0" style="stop-color:#5C0000"/>
	<stop  offset="1" style="stop-color:#BE1E2D"/>
</radialGradient>
<path class="st10" d="M47.7,54.9c-1.3,0-2.7-0.2-3.9-0.6c-0.9-0.3-1.9-1-2.5-1.8c-0.7-0.9-1.1-2-1.3-3.2c-0.3-1.5-0.4-3.1-0.4-4.6
	V26.2l-11,26.6h-0.8L16.3,25.7v27.1h-1.8V21.2h4.2l10.5,24.9l10.3-24.9h3.9v23.5c-0.1,2.3,0.3,4.7,1,6.9c0.5,1.5,1.7,2.5,3.2,2.5
	V54.9z"/>
<g>
	
		<linearGradient id="SVGID_12_" gradientUnits="userSpaceOnUse" x1="123.3588" y1="32.1" x2="136.1803" y2="32.1" gradientTransform="matrix(1 0 0 -1 0 102)">
		<stop  offset="0" style="stop-color:#6D0406"/>
		<stop  offset="1" style="stop-color:#B31F2E"/>
	</linearGradient>
	<path class="st11" d="M135.4,78.3h-12.1v-0.7h0.7c0.5,0,0.7-0.1,0.8-0.3c0.1-0.2,0.2-0.4,0.2-0.8V63.3c0-0.4-0.1-0.6-0.2-0.8
		s-0.5-0.3-0.8-0.3h-0.7v-0.7h5.7v0.7h-0.8c-0.5,0-0.7,0.1-0.8,0.3c-0.1,0.2-0.2,0.4-0.2,0.8v12.9c0,0.4,0.1,0.6,0.2,0.8
		c0.1,0.2,0.5,0.3,0.8,0.3h4.3c0.7,0,1.5-0.3,2.1-0.8c0.6-0.6,0.9-1.1,0.9-1.6l0.7,0.1L135.4,78.3z"/>
	
		<linearGradient id="SVGID_13_" gradientUnits="userSpaceOnUse" x1="143.6707" y1="31.85" x2="159.9558" y2="31.85" gradientTransform="matrix(1 0 0 -1 0 102)">
		<stop  offset="0" style="stop-color:#6D0406"/>
		<stop  offset="1" style="stop-color:#B31F2E"/>
	</linearGradient>
	<path class="st12" d="M156.6,71.4v-8.1c0-0.7-0.5-1.1-1.4-1.1h-0.7v-0.7h5.4v0.7h-0.8c-0.5,0-0.8,0.1-1.1,0.3s-0.4,0.5-0.4,0.8v8.1
		c0,1.2-0.2,2.3-0.7,3.3c-0.4,1-0.9,1.8-1.6,2.3c-1.3,1.2-2.7,1.8-4.2,1.8c-1.5,0-2.8-0.5-3.9-1.5s-1.7-2.2-1.7-3.5V63.3
		c0-0.2,0-0.4,0-0.6c0-0.1-0.1-0.2-0.3-0.3c-0.2-0.1-0.4-0.2-0.7-0.2h-0.7v-0.7h5.7v0.7h-0.8c-0.4,0-0.6,0.1-0.7,0.2
		c-0.2,0.1-0.3,0.2-0.3,0.3s0,0.3,0,0.6v8.4c0,1.8,0.4,3.1,1.1,3.9s1.9,1.2,3.4,1.2c0.7,0,1.3-0.1,2-0.4c0.7-0.3,1-0.6,1.4-0.9
		c0.4-0.4,0.7-0.9,0.9-1.6C156.5,73.1,156.6,72.3,156.6,71.4z"/>
	
		<linearGradient id="SVGID_14_" gradientUnits="userSpaceOnUse" x1="167.4757" y1="32.15" x2="182.1871" y2="32.15" gradientTransform="matrix(1 0 0 -1 0 102)">
		<stop  offset="0" style="stop-color:#6D0406"/>
		<stop  offset="1" style="stop-color:#B31F2E"/>
	</linearGradient>
	<path class="st13" d="M182.2,78.3h-5.2v-0.7h0.2c0.3,0,0.4-0.1,0.4-0.2s-0.2-0.6-0.6-1.4l-2.5-5.5l-2.7,5.5
		c-0.4,0.8-0.6,1.2-0.6,1.3c0,0.2,0.2,0.3,0.7,0.3h0.6v0.7h-5v-0.7h0.8c1,0,1.9-0.6,2.4-1.8l3.2-6.2l-3-5.8
		c-0.7-1.2-1.3-1.7-2.2-1.7h-0.6v-0.7h5.2v0.7H173c-0.2,0-0.3,0.1-0.3,0.2c0,0.1,0.1,0.4,0.3,0.9l2.2,4.5l1.8-3.6
		c0.5-1,0.7-1.5,0.7-1.7s-0.2-0.3-0.7-0.3h-0.6v-0.7h5.1v0.7h-0.8c-1.1,0-1.9,0.6-2.5,1.8l-2.2,4.7l3.6,7.1c0.7,1.2,1.4,1.9,2.2,1.9
		h0.6L182.2,78.3L182.2,78.3z"/>
	
		<linearGradient id="SVGID_15_" gradientUnits="userSpaceOnUse" x1="189.8194" y1="32.2" x2="204.395" y2="32.2" gradientTransform="matrix(1 0 0 -1 0 102)">
		<stop  offset="0" style="stop-color:#6D0406"/>
		<stop  offset="1" style="stop-color:#B31F2E"/>
	</linearGradient>
	<path class="st14" d="M193.3,61.5l4.3-0.2c1.3,0,2.4,0.3,3.3,0.9c0.8,0.6,1.2,1.4,1.2,2.4c0,1.4-0.4,2.6-1.1,3.5s-1.6,1.6-2.6,2
		L202,76c0.2,0.3,0.5,0.6,0.8,1c0.5,0.4,0.8,0.6,1.1,0.6h0.4v0.7H201c0,0-0.1-0.2-0.5-0.7c-0.4-0.5-0.6-0.8-0.6-0.9l-3.7-6.1
		c-0.2,0-0.5,0-0.9,0s-0.8,0-1.1,0l-0.2-1c0.2,0,0.7,0,1.3,0s1.4-0.1,2.1-0.3c0.7-0.2,1.3-0.6,1.8-1.1c0.6-0.5,0.7-1.2,0.7-2.1
		c0-2.4-1.4-3.6-4.3-3.6l-2.3,0.1v13.8c0,0.2,0,0.4,0,0.6s0.1,0.3,0.3,0.4c0.2,0.1,0.4,0.2,0.7,0.2h0.8v0.7h-5.7v-0.7h0.7
		c0.4,0,0.6-0.1,0.7-0.2s0.3-0.2,0.3-0.4s0-0.3,0-0.6V63.3c0-0.4-0.1-0.6-0.2-0.8c-0.2-0.2-0.5-0.3-0.8-0.3h-0.7v-0.7H193.3z"/>
	
		<linearGradient id="SVGID_16_" gradientUnits="userSpaceOnUse" x1="212.0731" y1="32.2" x2="226.6486" y2="32.2" gradientTransform="matrix(1 0 0 -1 0 102)">
		<stop  offset="0" style="stop-color:#6D0406"/>
		<stop  offset="1" style="stop-color:#B31F2E"/>
	</linearGradient>
	<path class="st15" d="M215.6,61.5l4.3-0.2c1.3,0,2.4,0.3,3.3,0.9c0.8,0.6,1.2,1.4,1.2,2.4c0,1.4-0.4,2.6-1.1,3.5s-1.6,1.6-2.6,2
		l3.7,5.9c0.2,0.3,0.5,0.6,0.8,1c0.5,0.4,0.8,0.6,1.1,0.6h0.4v0.7h-3.4c0,0-0.1-0.2-0.5-0.7c-0.4-0.5-0.6-0.8-0.6-0.9l-3.7-6.1
		c-0.2,0-0.5,0-0.9,0s-0.8,0-1.1,0l-0.2-1c0.2,0,0.7,0,1.3,0c0.7,0,1.4-0.1,2.1-0.3c0.7-0.2,1.3-0.6,1.8-1.1
		c0.6-0.5,0.7-1.2,0.7-2.1c0-2.4-1.4-3.6-4.3-3.6l-2.3,0.1v13.8c0,0.2,0,0.4,0,0.6s0.1,0.3,0.3,0.4s0.4,0.2,0.7,0.2h0.8v0.7h-5.7
		v-0.7h0.7c0.4,0,0.6-0.1,0.7-0.2s0.3-0.2,0.3-0.4s0-0.3,0-0.6V63.3c0-0.4-0.1-0.6-0.2-0.8c-0.2-0.2-0.5-0.3-0.8-0.3h-0.7v-0.7
		H215.6z"/>
</g>
</svg>
