<?xml version="1.0" encoding="utf-8"?>
<!-- Generator: Adobe Illustrator 23.0.1, SVG Export Plug-In . SVG Version: 6.00 Build 0)  -->
<svg version="1.1" id="Layer_1" xmlns="http://www.w3.org/2000/svg" xmlns:xlink="http://www.w3.org/1999/xlink" x="0px" y="0px"
	 viewBox="0 0 100 42.8" style="enable-background:new 0 0 100 42.8;" xml:space="preserve">
<style type="text/css">
	.st0{fill:#8F1923;}
</style>
<title>zylk_log_white</title>
<g>
	<path d="M15.8,12.8v0.9L1.2,29.3h14.6v0.8H0.1v-0.9l14.7-15.6H0v-0.8C0,12.8,15.8,12.8,15.8,12.8z"/>
	<path d="M19,12.8l7.3,16.3l7.3-16.3h1.1l-13.4,30h-1.1l5.6-12.7L18,12.8H19z"/>
	<path d="M77.7,0v30.1h-0.9V0H77.7z"/>
	<path d="M84.7,0v22.7l12.9-10h1.5l-8.6,6.7l9.6,10.7h-1.3l-9-10.1l-5,3.9v6.2h-0.9V0H84.7z"/>
	<path d="M34.7,21.7v-0.9h39.2v0.9H34.7z"/>
</g>
<g>
	<path class="st0" d="M35,21.6c2.4,0.9,4.9,1.5,7.5,1.7c3.3,0.4,6.6,0.2,9.8-0.4c0.8-0.2,1.7-0.4,2.6-0.5s1.5-0.3,2.2-0.4l1.5-0.3
		c0.9-0.2,1.7-0.4,2.6-0.6c0.5-0.1,1-0.1,1.4-0.3c0.8-0.2,1.5-0.3,2.3-0.4c1.3,0,2.5,0.2,3.7,0.4h-1.3c-0.6-0.1-1.2-0.1-1.8-0.2
		c-0.8,0-1.6,0.1-2.4,0.3c-1.3,0.3-2.7,0.5-4,0.8c-2,0.4-4.1,0.7-6,1.2c-3.1,0.8-6.4,1-9.6,0.7c-2.9-0.2-6.9-1-8.8-2"/>
	<path class="st0" d="M73.6,20.8c-1.5-0.5-3.2-0.4-4.7-0.7c-0.7-0.1-1.3-0.4-2-0.5c-0.6-0.1-1.1-0.1-1.7,0c-1.2,0.3-2.5,0.6-3.7,0.9
		c-1,0.3-2,0.4-3,0.6l-5.7,0.7l-2.1,0.3c-0.9,0.1-1.9,0.3-2.8,0.4s-2,0.1-3,0.1c-1.7,0.1-3.4,0-5.1-0.1c-1.4-0.2-2.7-0.4-4-0.9h0.1
		c1.2,0.4,2.4,0.6,3.6,0.8c1.7,0.1,2.5,0.1,4.3,0.1c1,0,1.9,0,2.9,0s2-0.1,3-0.3s1.8-0.3,2.7-0.4l5.8-0.7c0.8-0.1,1.7-0.2,2.5-0.4
		c0.8-0.2,1.5-0.4,2.2-0.6c0.6-0.2,1.2-0.3,1.7-0.5c0.5-0.1,1.1-0.2,1.6-0.2c0.6,0,1.1,0.1,1.6,0.3c0.4,0.1,0.8,0.2,1.2,0.3
		c0.4,0.1,0.9,0.1,1.4,0.2c0.9,0.1,1.7,0.1,2.6,0.3c0.3,0.1,0.6,0.2,0.9,0.3"/>
	<path class="st0" d="M72.2,20.8c-0.9-0.1-1.9-0.1-2.9-0.2c-0.4,0-0.8-0.1-1.1-0.2c-0.3-0.1-0.6-0.2-1-0.3C66.6,20,66,19.9,65.4,20
		c-0.6,0.1-1.2,0.2-1.7,0.4c-0.7,0.2-1.4,0.4-2.1,0.6s-1.5,0.3-2.3,0.5L56.6,22c-1,0.2-2,0.3-3,0.5s-1.8,0.3-2.8,0.5l-0.5,0.1
		c-0.7,0.1-1.4,0.2-2,0.3c-1.5,0.1-3,0.2-4.6,0.1c-2.8-0.1-7.6-0.7-8.3-1.5h0.2c0.8,0.6,4.8,1.1,7,1.3c1.5,0.1,3.1,0.1,4.6,0.1
		c1-0.1,2-0.2,3-0.3l0.5-0.1l1.7-0.3c0.9-0.1,1.8-0.3,2.7-0.5l1-0.1l2.5-0.4c0.6-0.1,1.3-0.2,1.9-0.3c0.8-0.2,1.5-0.4,2.3-0.6
		c0.6-0.2,1.2-0.3,1.8-0.5c0.6-0.1,1.1-0.1,1.7-0.1c0.3,0,0.6,0.1,0.9,0.1c0.3,0.1,0.7,0.2,1,0.3c1.5,0.4,3.1,0.2,4.6,0.5h0.1"/>
</g>
<g id="LINE">
	<path d="M42.2,33.3v5.9h-0.3v-5.9H42.2z"/>
	<path d="M49.6,33.7c0.1,0.1,0.1,0.1,0.1,0.2c0,0.2-0.2,0.3-0.3,0.3s-0.2,0-0.2-0.1c-0.1,0-0.2-0.1-0.2-0.2s0-0.2,0.1-0.2
		c0.1-0.1,0.1-0.1,0.2-0.1C49.5,33.6,49.5,33.6,49.6,33.7z M49.5,35v4.2h-0.3V35H49.5z"/>
	<path d="M59.7,36.6v2.6h-0.3v-2.6c0-1-0.4-1.5-1.3-1.5c-0.4,0-0.7,0.1-1,0.4c-0.3,0.3-0.4,0.7-0.4,1.1v2.5h-0.3V35h0.3v0.8
		c0.3-0.5,0.8-0.9,1.4-0.9C59.2,34.9,59.7,35.5,59.7,36.6z"/>
	<path d="M69.4,35.5c0.3,0.5,0.5,1.1,0.5,1.6h-3.6c0,0.5,0.2,0.9,0.5,1.3c0.3,0.3,0.7,0.5,1.2,0.5c0.4,0,0.7-0.1,1-0.3
		c0.2-0.2,0.4-0.5,0.5-0.8h0.3c-0.1,0.4-0.3,0.7-0.6,1c-0.4,0.3-0.8,0.5-1.3,0.5s-1.1-0.2-1.4-0.6c-0.4-0.4-0.6-1-0.5-1.6
		c0-0.6,0.2-1.1,0.5-1.5c0.7-0.8,1.9-0.9,2.7-0.2C69.3,35.4,69.4,35.5,69.4,35.5L69.4,35.5z M66.8,35.7c-0.3,0.4-0.5,0.8-0.5,1.3
		h3.2c-0.1-1.2-0.6-1.8-1.6-1.8C67.6,35.1,67.1,35.3,66.8,35.7z"/>
</g>
</svg>
